<?xml version="1.0" encoding="UTF-8" standalone="no"?>
<svg width="264.59" xmlns="http://www.w3.org/2000/svg" height="507.99">
 <g stroke-width="5" stroke="#000">
  <path id="svg_8" transform="rotate(10.435 191.05 270.63)" fill="#007f3f" d="m210.18 301.72c-27.632-46.488-106.58 10.728-22.369-45.296 84.213-56.024 22.369 45.296 22.369 45.296z"/>
  <path id="svg_6" transform="rotate(11.224 202.05 296.63)" fill="#007f00" d="m221.18 327.72c-27.632-46.488-106.58 10.728-22.369-45.296 84.213-56.024 22.369 45.296 22.369 45.296z"/>
  <path id="svg_7" transform="rotate(13.021 215.05 332.63)" fill="#007f3f" d="m234.18 363.72c-27.632-46.488-106.58 10.728-22.369-45.296 84.213-56.024 22.369 45.296 22.369 45.296z"/>
  <path id="svg_3" transform="rotate(10.552 159.05 254.63)" fill="#007f00" d="m178.18 285.72c-27.632-46.488-106.58 10.728-22.369-45.296 84.213-56.024 22.369 45.296 22.369 45.296z"/>
  <path id="svg_4" transform="rotate(-15.957 131.55 253.13)" fill="#007f3f" d="m149.3 280c-25.644-40.182-98.912 9.2727-20.759-39.151s20.759 39.151 20.759 39.151z"/>
  <g fill="#007f00">
   <path id="svg_5" transform="rotate(-36.798 97.551 261.12)" d="m112.86 285.63c-22.111-36.644-85.286 8.4564-17.9-35.705 67.387-44.161 17.9 35.705 17.9 35.705z"/>
   <path id="svg_1" transform="rotate(-49.873 32.172 422.81)" d="m40.584 433.4c-12.152-15.833-46.873 3.6538-9.8375-15.427 37.035-19.081 9.8375 15.427 9.8375 15.427z"/>
  </g>
  <path id="svg_9" transform="rotate(-43.246 50.031 406.38)" fill="#007f3f" d="m60.363 421.44c-14.926-22.528-57.573 5.1988-12.083-21.951s12.083 21.951 12.083 21.951z"/>
 </g>
 <g id="g236">
  <g id="layer1_1_">
   <path id="path3229" d="m23.687 431.04c63.812-53.385 67.864-6.642 121.64-37.499 28.875-20.41 18.646-39.248 15.735-52.123-2.912-12.875-2.148-20.818 10.029-20.262 9.267 0.42499 38.642 35.928 0.29602 75.474-53.342 55.012-77.576 8.923-135.62 49.015-49.341 34.081-11.502-13.766-12.083-14.605z" stroke="#000" stroke-width="4" fill="#698000"/>
   <path id="path3334" fill-opacity=".314" d="m188.63 364.58c-2.957 5.315-6.524 15-11.917 20.56-53.342 55.012-86.898 19.313-130.49 49.292-20.071 13.805-25.7 14.147-25.39 9.592-6.737 11.349-10.339 22.478 20.807 0.96301 58.04-40.09 82.251 6.345 135.04-54.072 9.057-9.341 9.287-17.854 11.944-26.335zm-22.497-44.245c-3.533 3.541-7.771 10.062-6.587 15.291 2.076 9.177 8.198 28.321 1.923 42.941 13.237-10.881 7.279-28.077 3.242-48.456-0.026001-4.985 1.441-8.874 1.422-9.776z"/>
  </g>
  <g id="layer1">
   <g id="g242">
    <path id="path2383" stroke-linejoin="round" d="m224.98 355.42c0.015015 51.189-41.479 92.696-92.667 92.696-51.189 0-92.683-41.507-92.667-92.696-0.01601-51.188 41.478-92.693 92.667-92.693 51.189-0.000977 92.682 41.504 92.667 92.693z" stroke="#000" stroke-linecap="round" stroke-width="3.287" fill="#698000"/>
    <path id="path3221" fill-opacity=".314" d="m219.38 323.64c0.063995 1.422 0.10602 2.871 0.10602 4.309 0 51.153-41.511 92.663-92.663 92.663-39.984 0-74.103-25.38-87.085-60.885 2.245 49.163 42.87 88.38 92.583 88.38 51.152 0 92.663-41.51 92.663-92.663 0.001007-11.169-1.977-21.885-5.604-31.804z"/>
   </g>
   <g id="g250">
    <path id="path3155" stroke-linejoin="round" d="m132.31 278c-19.28 0-34.921 5.895-46.424 15.73-0.48297-0.36102-25.444 26.643-22.815 53.509 3.721 38.036 47.481 69.239 69.239 69.239 22.603 0 70.058-31.03 69.239-69.239-0.673-31.378-22.676-53.761-23.159-53.324-11.62-9.937-27.247-15.915-46.08-15.915z" stroke="#000" stroke-linecap="round" stroke-width="4" fill="#698000"/>
    <g id="g253">
     <g id="g255">
      <path id="path3159" stroke-linejoin="round" d="m190.77 337.09c0.003021 10.591-8.582 19.178-19.173 19.178s-19.176-8.587-19.173-19.178c-0.003021-10.591 8.582-19.178 19.173-19.178s19.176 8.587 19.173 19.178z" stroke="#000" stroke-linecap="round" stroke-width="4" fill="#fff"/>
      <path id="path3161" d="m173.73 340.48c0.002014 3.53-2.859 6.393-6.39 6.393s-6.393-2.862-6.392-6.393c-0.001007-3.531 2.861-6.393 6.392-6.393s6.392 2.862 6.39 6.393z"/>
     </g>
     <g id="g259">
      <path id="path3157" stroke-linejoin="round" d="m112.32 337.09c0.002991 10.591-8.583 19.178-19.173 19.178-10.591 0-19.175-8.587-19.173-19.178-0.001999-10.591 8.582-19.178 19.173-19.178s19.177 8.587 19.173 19.178z" stroke="#000" stroke-linecap="round" stroke-width="4" fill="#fff"/>
      <path id="path3163" d="m104.33 340.48c0.002007 3.53-2.86 6.393-6.39 6.393s-6.392-2.862-6.391-6.393c-0.001007-3.531 2.861-6.393 6.391-6.393s6.392 2.862 6.39 6.393z"/>
     </g>
    </g>
    <path id="path3231" fill-opacity=".314" d="m194.42 314.31c1.485 6.457 3.067 13.301 3.067 20.41 0 38.217-46.638 69.239-69.24 69.239-17.517 0-51.687-20.097-64.348-47.878 6.442 34.048 48.367 60.383 68.419 60.383 22.602 0 69.24-31.022 69.24-69.239 0.001007-11.912-2.887-23.123-7.138-32.915z"/>
    <g id="g264">
     <path id="path2398" d="m146.35 391.77c-1.94 3.361-5.499 4.939-7.949 3.524-2.451-1.415-2.864-5.287-0.923-8.647 1.939-3.361 5.5-4.939 7.95-3.524s2.863 5.287 0.922 8.647z"/>
     <path id="path2412" d="m118.66 391.77c1.94 3.361 5.5 4.939 7.95 3.524 2.451-1.415 2.864-5.287 0.92199-8.647-1.94-3.361-5.499-4.939-7.95-3.524-2.449 1.415-2.862 5.287-0.922 8.647z"/>
    </g>
   </g>
  </g>
  <g id="g268">
   <g id="g270">
    <path id="path3245" stroke-linejoin="round" d="m59.663 438.36c-0.006004 19.188 15.547 21.632 34.733 21.632 19.188 0 34.74-2.444 34.735-21.632 0.005005-19.187-16.201-29.778-34.735-34.744-28.832-7.725-34.739 15.558-34.733 34.744z" stroke="#000" stroke-linecap="round" stroke-width="4" fill="#698000"/>
    <g id="g273" stroke-linejoin="round" stroke="#000" stroke-linecap="round" stroke-width="4" fill="#fff">
     <path id="path3239" d="m121.43 449.18c1.391 5.184-2.75 7.001-8.076 8.428-5.327 1.428-9.82 1.924-11.208-3.261-1.391-5.183 1.801-10.542 7.126-11.97 5.327-1.428 10.77 1.619 12.158 6.803z"/>
     <path id="path3241" d="m86.374 454.8c-1.388 5.185-5.881 4.688-11.208 3.262-5.326-1.428-9.467-3.245-8.077-8.429 1.388-5.184 6.832-8.23 12.158-6.803s8.518 6.786 7.127 11.97z"/>
     <path id="path3243" d="m103.53 453.94c0.002007 5.367-4.468 6.05-9.982 6.05s-9.983-0.68301-9.982-6.05c-0.000999-5.367 4.468-9.719 9.982-9.719 5.514 0.001007 9.984 4.352 9.982 9.719z"/>
    </g>
    <path id="path3297" fill-opacity=".314" d="m105.39 407.42c4.752 6.229 7.669 14.005 7.667 23.608 0.006004 22.692-15.552 25.592-34.738 25.592-2.969 0-5.841-0.089996-8.592-0.29098 6.293 3.055 15.016 3.675 24.665 3.675 19.187 0 34.745-2.465 34.739-21.652 0.004013-15.248-10.236-25.05-23.741-30.932z"/>
   </g>
   <g id="g279">
    <path id="path3220" stroke-linejoin="round" d="m206.96 438.36c0.00499 19.188-15.547 21.632-34.734 21.632s-34.74-2.444-34.734-21.632c-0.005997-19.187 16.201-29.778 34.734-34.744 28.832-7.725 34.739 15.558 34.734 34.744z" stroke="#000" stroke-linecap="round" stroke-width="4" fill="#698000"/>
    <g id="g282" stroke-linejoin="round" stroke="#000" stroke-linecap="round" stroke-width="4" fill="#fff">
     <path id="path3235_1_" d="m200.11 449.18c1.391 5.184-2.75 7.001-8.076 8.428-5.327 1.428-9.82 1.924-11.208-3.261-1.391-5.183 1.801-10.542 7.126-11.97 5.326-1.428 10.77 1.619 12.158 6.803z"/>
     <path id="path3237" d="m165.05 454.8c-1.388 5.185-5.881 4.688-11.207 3.262-5.327-1.428-9.467-3.245-8.077-8.429 1.388-5.184 6.832-8.23 12.158-6.803 5.325 1.427 8.517 6.786 7.126 11.97z"/>
     <path id="path3224" d="m182.21 453.94c0.001999 5.367-4.468 6.05-9.982 6.05s-9.983-0.68301-9.982-6.05c-0.001007-5.367 4.469-9.719 9.982-9.719 5.515 0.001007 9.984 4.352 9.982 9.719z"/>
    </g>
    <path id="path3358" fill-opacity=".314" d="m187.9 402.61c8.935 6.897 11.292 20.873 11.289 33.206 0.00499 19.854-16.081 22.392-35.929 22.392-4.307 0-8.414-0.13901-12.24-0.52802 5.866 1.878 13.216 2.3 21.202 2.3 19.188 0 34.745-2.438 34.739-21.625 0.004013-15.033-3.625-32.565-19.061-35.745z"/>
   </g>
  </g>
 </g>
</svg>
